# xmcd
#
# Track frame offsets:
#	150
#	10825
#	18360
#	26360
#	36689
#	49521
#	60408
#	70943
#	84100
#	97409
#	112444
#	123301
#	138740
#	147609
#	155345
#	165403
#	175458
#	185059
#	198870
#	205555
#	215821
#	221101
#	236453
#	245484
#	255328
#	264622
#	266662
#	275935
#	277703
#	289949
#	291732
#	295173
#	301824
#	303713
#	307970
#	311299
#	321827
#	330428
#
# Disc length: 4550 seconds
#
# Revision: 6
# Processed by: cddbd v1.5.2PL0 Copyright (c) Steve Scherf et al.
# Submitted via: audiograbber 1.83.01
#
DISCID=4f11c426
DTITLE=Beach Boys - Beach Boys' Party! - Uncovered And Unplugged  [CD1)
DYEAR=1965
DGENRE=Oldies
TTITLE0=Hully Gully
TTITLE1=I Should Have Known Better
TTITLE2=Tell Me Why
TTITLE3=Papa-Oom-Mow-Mow
TTITLE4=Mountain Of Love
TTITLE5=You've Got To Hide Your Love Away
TTITLE6=Devoted To You
TTITLE7=Alley Oop
TTITLE8=There's No Other (Like My Baby)
TTITLE9=I Get Around - Little Deuce Coupe
TTITLE10=The Times They Are A-Changin'
TTITLE11=Barbara Ann
TTITLE12=Let's Get This Party Rolling
TTITLE13=I Should Have Known Better - No. 1
TTITLE14=Ruby Baby - No. 1
TTITLE15=(I Can't Get No) Satisfaction - No. 1
TTITLE16=Hully Gully - No. 1
TTITLE17=Blowin' In The Wind
TTITLE18=Dialog - 'The Sunrays'
TTITLE19=Ruby Baby - No. 2
TTITLE20=Dialog - 'The Masked Phantom'
TTITLE21=Hully Gully - No. 2
TTITLE22=Dialog - 'Carl, Go Get Your Bass'
TTITLE23=Hully Gully - No. 3
TTITLE24=(I Can't Get No) Satisfaction - No. 2
TTITLE25=Dialog - 'That's A Bad Guitar'
TTITLE26=Ruby Baby - No. 3
TTITLE27=Dialog - 'What's The Matter Carl?'
TTITLE28=Ruby Baby - No. 4
TTITLE29=Dialog- 'Carl's Tires'
TTITLE30=I Should Have Known Better - No. 2
TTITLE31=I Should Have Known Better - No. 3
TTITLE32=Dialog - 'Wasn't That Great Folks?'
TTITLE33=Tell Me Why - No. 1
TTITLE34=Don't Worry Baby
TTITLE35=You've Got To Hide Your Love Away - No. 1
TTITLE36=Little Deuce Coupe - No. 1
TTITLE37=California Girls
EXTD=
EXTT0=
EXTT1=
EXTT2=
EXTT3=
EXTT4=
EXTT5=
EXTT6=
EXTT7=
EXTT8=
EXTT9=
EXTT10=
EXTT11=
EXTT12=
EXTT13=
EXTT14=
EXTT15=
EXTT16=
EXTT17=
EXTT18=
EXTT19=
EXTT20=
EXTT21=
EXTT22=
EXTT23=
EXTT24=
EXTT25=
EXTT26=
EXTT27=
EXTT28=
EXTT29=
EXTT30=
EXTT31=
EXTT32=
EXTT33=
EXTT34=
EXTT35=
EXTT36=
EXTT37=
PLAYORDER=
